  0
SECTION
  2
BLOCKS
  0
ENDSEC
  0
SECTION
  2
ENTITIES
  0
LINE
  8
0
 10
-514
 20
-55
 11
55
 21
-55
  0
LINE
  8
0
 10
55
 20
-55
 11
55
 21
514
  0
LINE
  8
0
 10
55
 20
514
 11
-514
 21
514
  0
LINE
  8
0
 10
-514
 20
514
 11
-514
 21
-55
  0
LINE
  8
0
 10
-448.72
 20
6.5
 11
-448.72
 21
44.5
  0
LINE
  8
0
 10
-448.72
 20
44.5
 11
-443.04
 21
44.5
  0
LINE
  8
0
 10
-443.04
 20
44.5
 11
-443.04
 21
6.5
  0
LINE
  8
0
 10
-443.04
 20
6.5
 11
-448.72
 21
6.5
  0
LINE
  8
0
 10
-448.72
 20
57.5
 11
-448.72
 21
95.5
  0
LINE
  8
0
 10
-448.72
 20
95.5
 11
-443.04
 21
95.5
  0
LINE
  8
0
 10
-443.04
 20
95.5
 11
-443.04
 21
57.5
  0
LINE
  8
0
 10
-443.04
 20
57.5
 11
-448.72
 21
57.5
  0
LINE
  8
0
 10
-448.72
 20
108.5
 11
-448.72
 21
146.5
  0
LINE
  8
0
 10
-448.72
 20
146.5
 11
-443.04
 21
146.5
  0
LINE
  8
0
 10
-443.04
 20
146.5
 11
-443.04
 21
108.5
  0
LINE
  8
0
 10
-443.04
 20
108.5
 11
-448.72
 21
108.5
  0
LINE
  8
0
 10
-448.72
 20
159.5
 11
-448.72
 21
197.5
  0
LINE
  8
0
 10
-448.72
 20
197.5
 11
-443.04
 21
197.5
  0
LINE
  8
0
 10
-443.04
 20
197.5
 11
-443.04
 21
159.5
  0
LINE
  8
0
 10
-443.04
 20
159.5
 11
-448.72
 21
159.5
  0
LINE
  8
0
 10
-448.72
 20
210.5
 11
-448.72
 21
248.5
  0
LINE
  8
0
 10
-448.72
 20
248.5
 11
-443.04
 21
248.5
  0
LINE
  8
0
 10
-443.04
 20
248.5
 11
-443.04
 21
210.5
  0
LINE
  8
0
 10
-443.04
 20
210.5
 11
-448.72
 21
210.5
  0
LINE
  8
0
 10
-448.72
 20
261.5
 11
-448.72
 21
299.5
  0
LINE
  8
0
 10
-448.72
 20
299.5
 11
-443.04
 21
299.5
  0
LINE
  8
0
 10
-443.04
 20
299.5
 11
-443.04
 21
261.5
  0
LINE
  8
0
 10
-443.04
 20
261.5
 11
-448.72
 21
261.5
  0
LINE
  8
0
 10
-448.72
 20
312.5
 11
-448.72
 21
350.5
  0
LINE
  8
0
 10
-448.72
 20
350.5
 11
-443.04
 21
350.5
  0
LINE
  8
0
 10
-443.04
 20
350.5
 11
-443.04
 21
312.5
  0
LINE
  8
0
 10
-443.04
 20
312.5
 11
-448.72
 21
312.5
  0
LINE
  8
0
 10
-448.72
 20
363.5
 11
-448.72
 21
401.5
  0
LINE
  8
0
 10
-448.72
 20
401.5
 11
-443.04
 21
401.5
  0
LINE
  8
0
 10
-443.04
 20
401.5
 11
-443.04
 21
363.5
  0
LINE
  8
0
 10
-443.04
 20
363.5
 11
-448.72
 21
363.5
  0
LINE
  8
0
 10
-448.72
 20
414.5
 11
-448.72
 21
452.5
  0
LINE
  8
0
 10
-448.72
 20
452.5
 11
-443.04
 21
452.5
  0
LINE
  8
0
 10
-443.04
 20
452.5
 11
-443.04
 21
414.5
  0
LINE
  8
0
 10
-443.04
 20
414.5
 11
-448.72
 21
414.5
  0
LINE
  8
0
 10
-423.47
 20
6.5
 11
-423.47
 21
44.5
  0
LINE
  8
0
 10
-423.47
 20
44.5
 11
-417.79
 21
44.5
  0
LINE
  8
0
 10
-417.79
 20
44.5
 11
-417.79
 21
6.5
  0
LINE
  8
0
 10
-417.79
 20
6.5
 11
-423.47
 21
6.5
  0
LINE
  8
0
 10
-423.47
 20
57.5
 11
-423.47
 21
95.5
  0
LINE
  8
0
 10
-423.47
 20
95.5
 11
-417.79
 21
95.5
  0
LINE
  8
0
 10
-417.79
 20
95.5
 11
-417.79
 21
57.5
  0
LINE
  8
0
 10
-417.79
 20
57.5
 11
-423.47
 21
57.5
  0
LINE
  8
0
 10
-423.47
 20
108.5
 11
-423.47
 21
146.5
  0
LINE
  8
0
 10
-423.47
 20
146.5
 11
-417.79
 21
146.5
  0
LINE
  8
0
 10
-417.79
 20
146.5
 11
-417.79
 21
108.5
  0
LINE
  8
0
 10
-417.79
 20
108.5
 11
-423.47
 21
108.5
  0
LINE
  8
0
 10
-423.47
 20
159.5
 11
-423.47
 21
197.5
  0
LINE
  8
0
 10
-423.47
 20
197.5
 11
-417.79
 21
197.5
  0
LINE
  8
0
 10
-417.79
 20
197.5
 11
-417.79
 21
159.5
  0
LINE
  8
0
 10
-417.79
 20
159.5
 11
-423.47
 21
159.5
  0
LINE
  8
0
 10
-423.47
 20
210.5
 11
-423.47
 21
248.5
  0
LINE
  8
0
 10
-423.47
 20
248.5
 11
-417.79
 21
248.5
  0
LINE
  8
0
 10
-417.79
 20
248.5
 11
-417.79
 21
210.5
  0
LINE
  8
0
 10
-417.79
 20
210.5
 11
-423.47
 21
210.5
  0
LINE
  8
0
 10
-423.47
 20
261.5
 11
-423.47
 21
299.5
  0
LINE
  8
0
 10
-423.47
 20
299.5
 11
-417.79
 21
299.5
  0
LINE
  8
0
 10
-417.79
 20
299.5
 11
-417.79
 21
261.5
  0
LINE
  8
0
 10
-417.79
 20
261.5
 11
-423.47
 21
261.5
  0
LINE
  8
0
 10
-423.47
 20
312.5
 11
-423.47
 21
350.5
  0
LINE
  8
0
 10
-423.47
 20
350.5
 11
-417.79
 21
350.5
  0
LINE
  8
0
 10
-417.79
 20
350.5
 11
-417.79
 21
312.5
  0
LINE
  8
0
 10
-417.79
 20
312.5
 11
-423.47
 21
312.5
  0
LINE
  8
0
 10
-423.47
 20
363.5
 11
-423.47
 21
401.5
  0
LINE
  8
0
 10
-423.47
 20
401.5
 11
-417.79
 21
401.5
  0
LINE
  8
0
 10
-417.79
 20
401.5
 11
-417.79
 21
363.5
  0
LINE
  8
0
 10
-417.79
 20
363.5
 11
-423.47
 21
363.5
  0
LINE
  8
0
 10
-423.47
 20
414.5
 11
-423.47
 21
452.5
  0
LINE
  8
0
 10
-423.47
 20
452.5
 11
-417.79
 21
452.5
  0
LINE
  8
0
 10
-417.79
 20
452.5
 11
-417.79
 21
414.5
  0
LINE
  8
0
 10
-417.79
 20
414.5
 11
-423.47
 21
414.5
  0
LINE
  8
0
 10
-397.72
 20
6.5
 11
-397.72
 21
44.5
  0
LINE
  8
0
 10
-397.72
 20
44.5
 11
-392.04
 21
44.5
  0
LINE
  8
0
 10
-392.04
 20
44.5
 11
-392.04
 21
6.5
  0
LINE
  8
0
 10
-392.04
 20
6.5
 11
-397.72
 21
6.5
  0
LINE
  8
0
 10
-397.72
 20
57.5
 11
-397.72
 21
95.5
  0
LINE
  8
0
 10
-397.72
 20
95.5
 11
-392.04
 21
95.5
  0
LINE
  8
0
 10
-392.04
 20
95.5
 11
-392.04
 21
57.5
  0
LINE
  8
0
 10
-392.04
 20
57.5
 11
-397.72
 21
57.5
  0
LINE
  8
0
 10
-397.72
 20
108.5
 11
-397.72
 21
146.5
  0
LINE
  8
0
 10
-397.72
 20
146.5
 11
-392.04
 21
146.5
  0
LINE
  8
0
 10
-392.04
 20
146.5
 11
-392.04
 21
108.5
  0
LINE
  8
0
 10
-392.04
 20
108.5
 11
-397.72
 21
108.5
  0
LINE
  8
0
 10
-397.72
 20
159.5
 11
-397.72
 21
197.5
  0
LINE
  8
0
 10
-397.72
 20
197.5
 11
-392.04
 21
197.5
  0
LINE
  8
0
 10
-392.04
 20
197.5
 11
-392.04
 21
159.5
  0
LINE
  8
0
 10
-392.04
 20
159.5
 11
-397.72
 21
159.5
  0
LINE
  8
0
 10
-397.72
 20
210.5
 11
-397.72
 21
248.5
  0
LINE
  8
0
 10
-397.72
 20
248.5
 11
-392.04
 21
248.5
  0
LINE
  8
0
 10
-392.04
 20
248.5
 11
-392.04
 21
210.5
  0
LINE
  8
0
 10
-392.04
 20
210.5
 11
-397.72
 21
210.5
  0
LINE
  8
0
 10
-397.72
 20
261.5
 11
-397.72
 21
299.5
  0
LINE
  8
0
 10
-397.72
 20
299.5
 11
-392.04
 21
299.5
  0
LINE
  8
0
 10
-392.04
 20
299.5
 11
-392.04
 21
261.5
  0
LINE
  8
0
 10
-392.04
 20
261.5
 11
-397.72
 21
261.5
  0
LINE
  8
0
 10
-397.72
 20
312.5
 11
-397.72
 21
350.5
  0
LINE
  8
0
 10
-397.72
 20
350.5
 11
-392.04
 21
350.5
  0
LINE
  8
0
 10
-392.04
 20
350.5
 11
-392.04
 21
312.5
  0
LINE
  8
0
 10
-392.04
 20
312.5
 11
-397.72
 21
312.5
  0
LINE
  8
0
 10
-397.72
 20
363.5
 11
-397.72
 21
401.5
  0
LINE
  8
0
 10
-397.72
 20
401.5
 11
-392.04
 21
401.5
  0
LINE
  8
0
 10
-392.04
 20
401.5
 11
-392.04
 21
363.5
  0
LINE
  8
0
 10
-392.04
 20
363.5
 11
-397.72
 21
363.5
  0
LINE
  8
0
 10
-397.72
 20
414.5
 11
-397.72
 21
452.5
  0
LINE
  8
0
 10
-397.72
 20
452.5
 11
-392.04
 21
452.5
  0
LINE
  8
0
 10
-392.04
 20
452.5
 11
-392.04
 21
414.5
  0
LINE
  8
0
 10
-392.04
 20
414.5
 11
-397.72
 21
414.5
  0
LINE
  8
0
 10
-372.47
 20
6.5
 11
-372.47
 21
44.5
  0
LINE
  8
0
 10
-372.47
 20
44.5
 11
-366.79
 21
44.5
  0
LINE
  8
0
 10
-366.79
 20
44.5
 11
-366.79
 21
6.5
  0
LINE
  8
0
 10
-366.79
 20
6.5
 11
-372.47
 21
6.5
  0
LINE
  8
0
 10
-372.47
 20
57.5
 11
-372.47
 21
95.5
  0
LINE
  8
0
 10
-372.47
 20
95.5
 11
-366.79
 21
95.5
  0
LINE
  8
0
 10
-366.79
 20
95.5
 11
-366.79
 21
57.5
  0
LINE
  8
0
 10
-366.79
 20
57.5
 11
-372.47
 21
57.5
  0
LINE
  8
0
 10
-372.47
 20
108.5
 11
-372.47
 21
146.5
  0
LINE
  8
0
 10
-372.47
 20
146.5
 11
-366.79
 21
146.5
  0
LINE
  8
0
 10
-366.79
 20
146.5
 11
-366.79
 21
108.5
  0
LINE
  8
0
 10
-366.79
 20
108.5
 11
-372.47
 21
108.5
  0
LINE
  8
0
 10
-372.47
 20
159.5
 11
-372.47
 21
197.5
  0
LINE
  8
0
 10
-372.47
 20
197.5
 11
-366.79
 21
197.5
  0
LINE
  8
0
 10
-366.79
 20
197.5
 11
-366.79
 21
159.5
  0
LINE
  8
0
 10
-366.79
 20
159.5
 11
-372.47
 21
159.5
  0
LINE
  8
0
 10
-372.47
 20
210.5
 11
-372.47
 21
248.5
  0
LINE
  8
0
 10
-372.47
 20
248.5
 11
-366.79
 21
248.5
  0
LINE
  8
0
 10
-366.79
 20
248.5
 11
-366.79
 21
210.5
  0
LINE
  8
0
 10
-366.79
 20
210.5
 11
-372.47
 21
210.5
  0
LINE
  8
0
 10
-372.47
 20
261.5
 11
-372.47
 21
299.5
  0
LINE
  8
0
 10
-372.47
 20
299.5
 11
-366.79
 21
299.5
  0
LINE
  8
0
 10
-366.79
 20
299.5
 11
-366.79
 21
261.5
  0
LINE
  8
0
 10
-366.79
 20
261.5
 11
-372.47
 21
261.5
  0
LINE
  8
0
 10
-372.47
 20
312.5
 11
-372.47
 21
350.5
  0
LINE
  8
0
 10
-372.47
 20
350.5
 11
-366.79
 21
350.5
  0
LINE
  8
0
 10
-366.79
 20
350.5
 11
-366.79
 21
312.5
  0
LINE
  8
0
 10
-366.79
 20
312.5
 11
-372.47
 21
312.5
  0
LINE
  8
0
 10
-372.47
 20
363.5
 11
-372.47
 21
401.5
  0
LINE
  8
0
 10
-372.47
 20
401.5
 11
-366.79
 21
401.5
  0
LINE
  8
0
 10
-366.79
 20
401.5
 11
-366.79
 21
363.5
  0
LINE
  8
0
 10
-366.79
 20
363.5
 11
-372.47
 21
363.5
  0
LINE
  8
0
 10
-372.47
 20
414.5
 11
-372.47
 21
452.5
  0
LINE
  8
0
 10
-372.47
 20
452.5
 11
-366.79
 21
452.5
  0
LINE
  8
0
 10
-366.79
 20
452.5
 11
-366.79
 21
414.5
  0
LINE
  8
0
 10
-366.79
 20
414.5
 11
-372.47
 21
414.5
  0
LINE
  8
0
 10
-346.72
 20
6.5
 11
-346.72
 21
44.5
  0
LINE
  8
0
 10
-346.72
 20
44.5
 11
-341.04
 21
44.5
  0
LINE
  8
0
 10
-341.04
 20
44.5
 11
-341.04
 21
6.5
  0
LINE
  8
0
 10
-341.04
 20
6.5
 11
-346.72
 21
6.5
  0
LINE
  8
0
 10
-346.72
 20
57.5
 11
-346.72
 21
95.5
  0
LINE
  8
0
 10
-346.72
 20
95.5
 11
-341.04
 21
95.5
  0
LINE
  8
0
 10
-341.04
 20
95.5
 11
-341.04
 21
57.5
  0
LINE
  8
0
 10
-341.04
 20
57.5
 11
-346.72
 21
57.5
  0
LINE
  8
0
 10
-346.72
 20
108.5
 11
-346.72
 21
146.5
  0
LINE
  8
0
 10
-346.72
 20
146.5
 11
-341.04
 21
146.5
  0
LINE
  8
0
 10
-341.04
 20
146.5
 11
-341.04
 21
108.5
  0
LINE
  8
0
 10
-341.04
 20
108.5
 11
-346.72
 21
108.5
  0
LINE
  8
0
 10
-346.72
 20
159.5
 11
-346.72
 21
197.5
  0
LINE
  8
0
 10
-346.72
 20
197.5
 11
-341.04
 21
197.5
  0
LINE
  8
0
 10
-341.04
 20
197.5
 11
-341.04
 21
159.5
  0
LINE
  8
0
 10
-341.04
 20
159.5
 11
-346.72
 21
159.5
  0
LINE
  8
0
 10
-346.72
 20
210.5
 11
-346.72
 21
248.5
  0
LINE
  8
0
 10
-346.72
 20
248.5
 11
-341.04
 21
248.5
  0
LINE
  8
0
 10
-341.04
 20
248.5
 11
-341.04
 21
210.5
  0
LINE
  8
0
 10
-341.04
 20
210.5
 11
-346.72
 21
210.5
  0
LINE
  8
0
 10
-346.72
 20
261.5
 11
-346.72
 21
299.5
  0
LINE
  8
0
 10
-346.72
 20
299.5
 11
-341.04
 21
299.5
  0
LINE
  8
0
 10
-341.04
 20
299.5
 11
-341.04
 21
261.5
  0
LINE
  8
0
 10
-341.04
 20
261.5
 11
-346.72
 21
261.5
  0
LINE
  8
0
 10
-346.72
 20
312.5
 11
-346.72
 21
350.5
  0
LINE
  8
0
 10
-346.72
 20
350.5
 11
-341.04
 21
350.5
  0
LINE
  8
0
 10
-341.04
 20
350.5
 11
-341.04
 21
312.5
  0
LINE
  8
0
 10
-341.04
 20
312.5
 11
-346.72
 21
312.5
  0
LINE
  8
0
 10
-346.72
 20
363.5
 11
-346.72
 21
401.5
  0
LINE
  8
0
 10
-346.72
 20
401.5
 11
-341.04
 21
401.5
  0
LINE
  8
0
 10
-341.04
 20
401.5
 11
-341.04
 21
363.5
  0
LINE
  8
0
 10
-341.04
 20
363.5
 11
-346.72
 21
363.5
  0
LINE
  8
0
 10
-346.72
 20
414.5
 11
-346.72
 21
452.5
  0
LINE
  8
0
 10
-346.72
 20
452.5
 11
-341.04
 21
452.5
  0
LINE
  8
0
 10
-341.04
 20
452.5
 11
-341.04
 21
414.5
  0
LINE
  8
0
 10
-341.04
 20
414.5
 11
-346.72
 21
414.5
  0
LINE
  8
0
 10
-321.47
 20
6.5
 11
-321.47
 21
44.5
  0
LINE
  8
0
 10
-321.47
 20
44.5
 11
-315.79
 21
44.5
  0
LINE
  8
0
 10
-315.79
 20
44.5
 11
-315.79
 21
6.5
  0
LINE
  8
0
 10
-315.79
 20
6.5
 11
-321.47
 21
6.5
  0
LINE
  8
0
 10
-321.47
 20
57.5
 11
-321.47
 21
95.5
  0
LINE
  8
0
 10
-321.47
 20
95.5
 11
-315.79
 21
95.5
  0
LINE
  8
0
 10
-315.79
 20
95.5
 11
-315.79
 21
57.5
  0
LINE
  8
0
 10
-315.79
 20
57.5
 11
-321.47
 21
57.5
  0
LINE
  8
0
 10
-321.47
 20
108.5
 11
-321.47
 21
146.5
  0
LINE
  8
0
 10
-321.47
 20
146.5
 11
-315.79
 21
146.5
  0
LINE
  8
0
 10
-315.79
 20
146.5
 11
-315.79
 21
108.5
  0
LINE
  8
0
 10
-315.79
 20
108.5
 11
-321.47
 21
108.5
  0
LINE
  8
0
 10
-321.47
 20
159.5
 11
-321.47
 21
197.5
  0
LINE
  8
0
 10
-321.47
 20
197.5
 11
-315.79
 21
197.5
  0
LINE
  8
0
 10
-315.79
 20
197.5
 11
-315.79
 21
159.5
  0
LINE
  8
0
 10
-315.79
 20
159.5
 11
-321.47
 21
159.5
  0
LINE
  8
0
 10
-321.47
 20
210.5
 11
-321.47
 21
248.5
  0
LINE
  8
0
 10
-321.47
 20
248.5
 11
-315.79
 21
248.5
  0
LINE
  8
0
 10
-315.79
 20
248.5
 11
-315.79
 21
210.5
  0
LINE
  8
0
 10
-315.79
 20
210.5
 11
-321.47
 21
210.5
  0
LINE
  8
0
 10
-321.47
 20
261.5
 11
-321.47
 21
299.5
  0
LINE
  8
0
 10
-321.47
 20
299.5
 11
-315.79
 21
299.5
  0
LINE
  8
0
 10
-315.79
 20
299.5
 11
-315.79
 21
261.5
  0
LINE
  8
0
 10
-315.79
 20
261.5
 11
-321.47
 21
261.5
  0
LINE
  8
0
 10
-321.47
 20
312.5
 11
-321.47
 21
350.5
  0
LINE
  8
0
 10
-321.47
 20
350.5
 11
-315.79
 21
350.5
  0
LINE
  8
0
 10
-315.79
 20
350.5
 11
-315.79
 21
312.5
  0
LINE
  8
0
 10
-315.79
 20
312.5
 11
-321.47
 21
312.5
  0
LINE
  8
0
 10
-321.47
 20
363.5
 11
-321.47
 21
401.5
  0
LINE
  8
0
 10
-321.47
 20
401.5
 11
-315.79
 21
401.5
  0
LINE
  8
0
 10
-315.79
 20
401.5
 11
-315.79
 21
363.5
  0
LINE
  8
0
 10
-315.79
 20
363.5
 11
-321.47
 21
363.5
  0
LINE
  8
0
 10
-321.47
 20
414.5
 11
-321.47
 21
452.5
  0
LINE
  8
0
 10
-321.47
 20
452.5
 11
-315.79
 21
452.5
  0
LINE
  8
0
 10
-315.79
 20
452.5
 11
-315.79
 21
414.5
  0
LINE
  8
0
 10
-315.79
 20
414.5
 11
-321.47
 21
414.5
  0
LINE
  8
0
 10
-295.72
 20
6.5
 11
-295.72
 21
44.5
  0
LINE
  8
0
 10
-295.72
 20
44.5
 11
-290.04
 21
44.5
  0
LINE
  8
0
 10
-290.04
 20
44.5
 11
-290.04
 21
6.5
  0
LINE
  8
0
 10
-290.04
 20
6.5
 11
-295.72
 21
6.5
  0
LINE
  8
0
 10
-295.72
 20
57.5
 11
-295.72
 21
95.5
  0
LINE
  8
0
 10
-295.72
 20
95.5
 11
-290.04
 21
95.5
  0
LINE
  8
0
 10
-290.04
 20
95.5
 11
-290.04
 21
57.5
  0
LINE
  8
0
 10
-290.04
 20
57.5
 11
-295.72
 21
57.5
  0
LINE
  8
0
 10
-295.72
 20
108.5
 11
-295.72
 21
146.5
  0
LINE
  8
0
 10
-295.72
 20
146.5
 11
-290.04
 21
146.5
  0
LINE
  8
0
 10
-290.04
 20
146.5
 11
-290.04
 21
108.5
  0
LINE
  8
0
 10
-290.04
 20
108.5
 11
-295.72
 21
108.5
  0
LINE
  8
0
 10
-295.72
 20
159.5
 11
-295.72
 21
197.5
  0
LINE
  8
0
 10
-295.72
 20
197.5
 11
-290.04
 21
197.5
  0
LINE
  8
0
 10
-290.04
 20
197.5
 11
-290.04
 21
159.5
  0
LINE
  8
0
 10
-290.04
 20
159.5
 11
-295.72
 21
159.5
  0
LINE
  8
0
 10
-295.72
 20
210.5
 11
-295.72
 21
248.5
  0
LINE
  8
0
 10
-295.72
 20
248.5
 11
-290.04
 21
248.5
  0
LINE
  8
0
 10
-290.04
 20
248.5
 11
-290.04
 21
210.5
  0
LINE
  8
0
 10
-290.04
 20
210.5
 11
-295.72
 21
210.5
  0
LINE
  8
0
 10
-295.72
 20
261.5
 11
-295.72
 21
299.5
  0
LINE
  8
0
 10
-295.72
 20
299.5
 11
-290.04
 21
299.5
  0
LINE
  8
0
 10
-290.04
 20
299.5
 11
-290.04
 21
261.5
  0
LINE
  8
0
 10
-290.04
 20
261.5
 11
-295.72
 21
261.5
  0
LINE
  8
0
 10
-295.72
 20
312.5
 11
-295.72
 21
350.5
  0
LINE
  8
0
 10
-295.72
 20
350.5
 11
-290.04
 21
350.5
  0
LINE
  8
0
 10
-290.04
 20
350.5
 11
-290.04
 21
312.5
  0
LINE
  8
0
 10
-290.04
 20
312.5
 11
-295.72
 21
312.5
  0
LINE
  8
0
 10
-295.72
 20
363.5
 11
-295.72
 21
401.5
  0
LINE
  8
0
 10
-295.72
 20
401.5
 11
-290.04
 21
401.5
  0
LINE
  8
0
 10
-290.04
 20
401.5
 11
-290.04
 21
363.5
  0
LINE
  8
0
 10
-290.04
 20
363.5
 11
-295.72
 21
363.5
  0
LINE
  8
0
 10
-295.72
 20
414.5
 11
-295.72
 21
452.5
  0
LINE
  8
0
 10
-295.72
 20
452.5
 11
-290.04
 21
452.5
  0
LINE
  8
0
 10
-290.04
 20
452.5
 11
-290.04
 21
414.5
  0
LINE
  8
0
 10
-290.04
 20
414.5
 11
-295.72
 21
414.5
  0
LINE
  8
0
 10
-270.47
 20
6.5
 11
-270.47
 21
44.5
  0
LINE
  8
0
 10
-270.47
 20
44.5
 11
-264.79
 21
44.5
  0
LINE
  8
0
 10
-264.79
 20
44.5
 11
-264.79
 21
6.5
  0
LINE
  8
0
 10
-264.79
 20
6.5
 11
-270.47
 21
6.5
  0
LINE
  8
0
 10
-270.47
 20
57.5
 11
-270.47
 21
95.5
  0
LINE
  8
0
 10
-270.47
 20
95.5
 11
-264.79
 21
95.5
  0
LINE
  8
0
 10
-264.79
 20
95.5
 11
-264.79
 21
57.5
  0
LINE
  8
0
 10
-264.79
 20
57.5
 11
-270.47
 21
57.5
  0
LINE
  8
0
 10
-270.47
 20
108.5
 11
-270.47
 21
146.5
  0
LINE
  8
0
 10
-270.47
 20
146.5
 11
-264.79
 21
146.5
  0
LINE
  8
0
 10
-264.79
 20
146.5
 11
-264.79
 21
108.5
  0
LINE
  8
0
 10
-264.79
 20
108.5
 11
-270.47
 21
108.5
  0
LINE
  8
0
 10
-270.47
 20
159.5
 11
-270.47
 21
197.5
  0
LINE
  8
0
 10
-270.47
 20
197.5
 11
-264.79
 21
197.5
  0
LINE
  8
0
 10
-264.79
 20
197.5
 11
-264.79
 21
159.5
  0
LINE
  8
0
 10
-264.79
 20
159.5
 11
-270.47
 21
159.5
  0
LINE
  8
0
 10
-270.47
 20
210.5
 11
-270.47
 21
248.5
  0
LINE
  8
0
 10
-270.47
 20
248.5
 11
-264.79
 21
248.5
  0
LINE
  8
0
 10
-264.79
 20
248.5
 11
-264.79
 21
210.5
  0
LINE
  8
0
 10
-264.79
 20
210.5
 11
-270.47
 21
210.5
  0
LINE
  8
0
 10
-270.47
 20
261.5
 11
-270.47
 21
299.5
  0
LINE
  8
0
 10
-270.47
 20
299.5
 11
-264.79
 21
299.5
  0
LINE
  8
0
 10
-264.79
 20
299.5
 11
-264.79
 21
261.5
  0
LINE
  8
0
 10
-264.79
 20
261.5
 11
-270.47
 21
261.5
  0
LINE
  8
0
 10
-270.47
 20
312.5
 11
-270.47
 21
350.5
  0
LINE
  8
0
 10
-270.47
 20
350.5
 11
-264.79
 21
350.5
  0
LINE
  8
0
 10
-264.79
 20
350.5
 11
-264.79
 21
312.5
  0
LINE
  8
0
 10
-264.79
 20
312.5
 11
-270.47
 21
312.5
  0
LINE
  8
0
 10
-270.47
 20
363.5
 11
-270.47
 21
401.5
  0
LINE
  8
0
 10
-270.47
 20
401.5
 11
-264.79
 21
401.5
  0
LINE
  8
0
 10
-264.79
 20
401.5
 11
-264.79
 21
363.5
  0
LINE
  8
0
 10
-264.79
 20
363.5
 11
-270.47
 21
363.5
  0
LINE
  8
0
 10
-270.47
 20
414.5
 11
-270.47
 21
452.5
  0
LINE
  8
0
 10
-270.47
 20
452.5
 11
-264.79
 21
452.5
  0
LINE
  8
0
 10
-264.79
 20
452.5
 11
-264.79
 21
414.5
  0
LINE
  8
0
 10
-264.79
 20
414.5
 11
-270.47
 21
414.5
  0
LINE
  8
0
 10
-244.72
 20
6.5
 11
-244.72
 21
44.5
  0
LINE
  8
0
 10
-244.72
 20
44.5
 11
-239.04
 21
44.5
  0
LINE
  8
0
 10
-239.04
 20
44.5
 11
-239.04
 21
6.5
  0
LINE
  8
0
 10
-239.04
 20
6.5
 11
-244.72
 21
6.5
  0
LINE
  8
0
 10
-244.72
 20
57.5
 11
-244.72
 21
95.5
  0
LINE
  8
0
 10
-244.72
 20
95.5
 11
-239.04
 21
95.5
  0
LINE
  8
0
 10
-239.04
 20
95.5
 11
-239.04
 21
57.5
  0
LINE
  8
0
 10
-239.04
 20
57.5
 11
-244.72
 21
57.5
  0
LINE
  8
0
 10
-244.72
 20
108.5
 11
-244.72
 21
146.5
  0
LINE
  8
0
 10
-244.72
 20
146.5
 11
-239.04
 21
146.5
  0
LINE
  8
0
 10
-239.04
 20
146.5
 11
-239.04
 21
108.5
  0
LINE
  8
0
 10
-239.04
 20
108.5
 11
-244.72
 21
108.5
  0
LINE
  8
0
 10
-244.72
 20
159.5
 11
-244.72
 21
197.5
  0
LINE
  8
0
 10
-244.72
 20
197.5
 11
-239.04
 21
197.5
  0
LINE
  8
0
 10
-239.04
 20
197.5
 11
-239.04
 21
159.5
  0
LINE
  8
0
 10
-239.04
 20
159.5
 11
-244.72
 21
159.5
  0
LINE
  8
0
 10
-244.72
 20
210.5
 11
-244.72
 21
248.5
  0
LINE
  8
0
 10
-244.72
 20
248.5
 11
-239.04
 21
248.5
  0
LINE
  8
0
 10
-239.04
 20
248.5
 11
-239.04
 21
210.5
  0
LINE
  8
0
 10
-239.04
 20
210.5
 11
-244.72
 21
210.5
  0
LINE
  8
0
 10
-244.72
 20
261.5
 11
-244.72
 21
299.5
  0
LINE
  8
0
 10
-244.72
 20
299.5
 11
-239.04
 21
299.5
  0
LINE
  8
0
 10
-239.04
 20
299.5
 11
-239.04
 21
261.5
  0
LINE
  8
0
 10
-239.04
 20
261.5
 11
-244.72
 21
261.5
  0
LINE
  8
0
 10
-244.72
 20
312.5
 11
-244.72
 21
350.5
  0
LINE
  8
0
 10
-244.72
 20
350.5
 11
-239.04
 21
350.5
  0
LINE
  8
0
 10
-239.04
 20
350.5
 11
-239.04
 21
312.5
  0
LINE
  8
0
 10
-239.04
 20
312.5
 11
-244.72
 21
312.5
  0
LINE
  8
0
 10
-244.72
 20
363.5
 11
-244.72
 21
401.5
  0
LINE
  8
0
 10
-244.72
 20
401.5
 11
-239.04
 21
401.5
  0
LINE
  8
0
 10
-239.04
 20
401.5
 11
-239.04
 21
363.5
  0
LINE
  8
0
 10
-239.04
 20
363.5
 11
-244.72
 21
363.5
  0
LINE
  8
0
 10
-244.72
 20
414.5
 11
-244.72
 21
452.5
  0
LINE
  8
0
 10
-244.72
 20
452.5
 11
-239.04
 21
452.5
  0
LINE
  8
0
 10
-239.04
 20
452.5
 11
-239.04
 21
414.5
  0
LINE
  8
0
 10
-239.04
 20
414.5
 11
-244.72
 21
414.5
  0
LINE
  8
0
 10
-219.47
 20
6.5
 11
-219.47
 21
44.5
  0
LINE
  8
0
 10
-219.47
 20
44.5
 11
-213.79
 21
44.5
  0
LINE
  8
0
 10
-213.79
 20
44.5
 11
-213.79
 21
6.5
  0
LINE
  8
0
 10
-213.79
 20
6.5
 11
-219.47
 21
6.5
  0
LINE
  8
0
 10
-219.47
 20
57.5
 11
-219.47
 21
95.5
  0
LINE
  8
0
 10
-219.47
 20
95.5
 11
-213.79
 21
95.5
  0
LINE
  8
0
 10
-213.79
 20
95.5
 11
-213.79
 21
57.5
  0
LINE
  8
0
 10
-213.79
 20
57.5
 11
-219.47
 21
57.5
  0
LINE
  8
0
 10
-219.47
 20
108.5
 11
-219.47
 21
146.5
  0
LINE
  8
0
 10
-219.47
 20
146.5
 11
-213.79
 21
146.5
  0
LINE
  8
0
 10
-213.79
 20
146.5
 11
-213.79
 21
108.5
  0
LINE
  8
0
 10
-213.79
 20
108.5
 11
-219.47
 21
108.5
  0
LINE
  8
0
 10
-219.47
 20
159.5
 11
-219.47
 21
197.5
  0
LINE
  8
0
 10
-219.47
 20
197.5
 11
-213.79
 21
197.5
  0
LINE
  8
0
 10
-213.79
 20
197.5
 11
-213.79
 21
159.5
  0
LINE
  8
0
 10
-213.79
 20
159.5
 11
-219.47
 21
159.5
  0
LINE
  8
0
 10
-219.47
 20
210.5
 11
-219.47
 21
248.5
  0
LINE
  8
0
 10
-219.47
 20
248.5
 11
-213.79
 21
248.5
  0
LINE
  8
0
 10
-213.79
 20
248.5
 11
-213.79
 21
210.5
  0
LINE
  8
0
 10
-213.79
 20
210.5
 11
-219.47
 21
210.5
  0
LINE
  8
0
 10
-219.47
 20
261.5
 11
-219.47
 21
299.5
  0
LINE
  8
0
 10
-219.47
 20
299.5
 11
-213.79
 21
299.5
  0
LINE
  8
0
 10
-213.79
 20
299.5
 11
-213.79
 21
261.5
  0
LINE
  8
0
 10
-213.79
 20
261.5
 11
-219.47
 21
261.5
  0
LINE
  8
0
 10
-219.47
 20
312.5
 11
-219.47
 21
350.5
  0
LINE
  8
0
 10
-219.47
 20
350.5
 11
-213.79
 21
350.5
  0
LINE
  8
0
 10
-213.79
 20
350.5
 11
-213.79
 21
312.5
  0
LINE
  8
0
 10
-213.79
 20
312.5
 11
-219.47
 21
312.5
  0
LINE
  8
0
 10
-219.47
 20
363.5
 11
-219.47
 21
401.5
  0
LINE
  8
0
 10
-219.47
 20
401.5
 11
-213.79
 21
401.5
  0
LINE
  8
0
 10
-213.79
 20
401.5
 11
-213.79
 21
363.5
  0
LINE
  8
0
 10
-213.79
 20
363.5
 11
-219.47
 21
363.5
  0
LINE
  8
0
 10
-219.47
 20
414.5
 11
-219.47
 21
452.5
  0
LINE
  8
0
 10
-219.47
 20
452.5
 11
-213.79
 21
452.5
  0
LINE
  8
0
 10
-213.79
 20
452.5
 11
-213.79
 21
414.5
  0
LINE
  8
0
 10
-213.79
 20
414.5
 11
-219.47
 21
414.5
  0
LINE
  8
0
 10
-193.72
 20
6.5
 11
-193.72
 21
44.5
  0
LINE
  8
0
 10
-193.72
 20
44.5
 11
-188.04
 21
44.5
  0
LINE
  8
0
 10
-188.04
 20
44.5
 11
-188.04
 21
6.5
  0
LINE
  8
0
 10
-188.04
 20
6.5
 11
-193.72
 21
6.5
  0
LINE
  8
0
 10
-193.72
 20
57.5
 11
-193.72
 21
95.5
  0
LINE
  8
0
 10
-193.72
 20
95.5
 11
-188.04
 21
95.5
  0
LINE
  8
0
 10
-188.04
 20
95.5
 11
-188.04
 21
57.5
  0
LINE
  8
0
 10
-188.04
 20
57.5
 11
-193.72
 21
57.5
  0
LINE
  8
0
 10
-193.72
 20
108.5
 11
-193.72
 21
146.5
  0
LINE
  8
0
 10
-193.72
 20
146.5
 11
-188.04
 21
146.5
  0
LINE
  8
0
 10
-188.04
 20
146.5
 11
-188.04
 21
108.5
  0
LINE
  8
0
 10
-188.04
 20
108.5
 11
-193.72
 21
108.5
  0
LINE
  8
0
 10
-193.72
 20
159.5
 11
-193.72
 21
197.5
  0
LINE
  8
0
 10
-193.72
 20
197.5
 11
-188.04
 21
197.5
  0
LINE
  8
0
 10
-188.04
 20
197.5
 11
-188.04
 21
159.5
  0
LINE
  8
0
 10
-188.04
 20
159.5
 11
-193.72
 21
159.5
  0
LINE
  8
0
 10
-193.72
 20
210.5
 11
-193.72
 21
248.5
  0
LINE
  8
0
 10
-193.72
 20
248.5
 11
-188.04
 21
248.5
  0
LINE
  8
0
 10
-188.04
 20
248.5
 11
-188.04
 21
210.5
  0
LINE
  8
0
 10
-188.04
 20
210.5
 11
-193.72
 21
210.5
  0
LINE
  8
0
 10
-193.72
 20
261.5
 11
-193.72
 21
299.5
  0
LINE
  8
0
 10
-193.72
 20
299.5
 11
-188.04
 21
299.5
  0
LINE
  8
0
 10
-188.04
 20
299.5
 11
-188.04
 21
261.5
  0
LINE
  8
0
 10
-188.04
 20
261.5
 11
-193.72
 21
261.5
  0
LINE
  8
0
 10
-193.72
 20
312.5
 11
-193.72
 21
350.5
  0
LINE
  8
0
 10
-193.72
 20
350.5
 11
-188.04
 21
350.5
  0
LINE
  8
0
 10
-188.04
 20
350.5
 11
-188.04
 21
312.5
  0
LINE
  8
0
 10
-188.04
 20
312.5
 11
-193.72
 21
312.5
  0
LINE
  8
0
 10
-193.72
 20
363.5
 11
-193.72
 21
401.5
  0
LINE
  8
0
 10
-193.72
 20
401.5
 11
-188.04
 21
401.5
  0
LINE
  8
0
 10
-188.04
 20
401.5
 11
-188.04
 21
363.5
  0
LINE
  8
0
 10
-188.04
 20
363.5
 11
-193.72
 21
363.5
  0
LINE
  8
0
 10
-193.72
 20
414.5
 11
-193.72
 21
452.5
  0
LINE
  8
0
 10
-193.72
 20
452.5
 11
-188.04
 21
452.5
  0
LINE
  8
0
 10
-188.04
 20
452.5
 11
-188.04
 21
414.5
  0
LINE
  8
0
 10
-188.04
 20
414.5
 11
-193.72
 21
414.5
  0
LINE
  8
0
 10
-168.47
 20
6.5
 11
-168.47
 21
44.5
  0
LINE
  8
0
 10
-168.47
 20
44.5
 11
-162.79
 21
44.5
  0
LINE
  8
0
 10
-162.79
 20
44.5
 11
-162.79
 21
6.5
  0
LINE
  8
0
 10
-162.79
 20
6.5
 11
-168.47
 21
6.5
  0
LINE
  8
0
 10
-168.47
 20
57.5
 11
-168.47
 21
95.5
  0
LINE
  8
0
 10
-168.47
 20
95.5
 11
-162.79
 21
95.5
  0
LINE
  8
0
 10
-162.79
 20
95.5
 11
-162.79
 21
57.5
  0
LINE
  8
0
 10
-162.79
 20
57.5
 11
-168.47
 21
57.5
  0
LINE
  8
0
 10
-168.47
 20
108.5
 11
-168.47
 21
146.5
  0
LINE
  8
0
 10
-168.47
 20
146.5
 11
-162.79
 21
146.5
  0
LINE
  8
0
 10
-162.79
 20
146.5
 11
-162.79
 21
108.5
  0
LINE
  8
0
 10
-162.79
 20
108.5
 11
-168.47
 21
108.5
  0
LINE
  8
0
 10
-168.47
 20
159.5
 11
-168.47
 21
197.5
  0
LINE
  8
0
 10
-168.47
 20
197.5
 11
-162.79
 21
197.5
  0
LINE
  8
0
 10
-162.79
 20
197.5
 11
-162.79
 21
159.5
  0
LINE
  8
0
 10
-162.79
 20
159.5
 11
-168.47
 21
159.5
  0
LINE
  8
0
 10
-168.47
 20
210.5
 11
-168.47
 21
248.5
  0
LINE
  8
0
 10
-168.47
 20
248.5
 11
-162.79
 21
248.5
  0
LINE
  8
0
 10
-162.79
 20
248.5
 11
-162.79
 21
210.5
  0
LINE
  8
0
 10
-162.79
 20
210.5
 11
-168.47
 21
210.5
  0
LINE
  8
0
 10
-168.47
 20
261.5
 11
-168.47
 21
299.5
  0
LINE
  8
0
 10
-168.47
 20
299.5
 11
-162.79
 21
299.5
  0
LINE
  8
0
 10
-162.79
 20
299.5
 11
-162.79
 21
261.5
  0
LINE
  8
0
 10
-162.79
 20
261.5
 11
-168.47
 21
261.5
  0
LINE
  8
0
 10
-168.47
 20
312.5
 11
-168.47
 21
350.5
  0
LINE
  8
0
 10
-168.47
 20
350.5
 11
-162.79
 21
350.5
  0
LINE
  8
0
 10
-162.79
 20
350.5
 11
-162.79
 21
312.5
  0
LINE
  8
0
 10
-162.79
 20
312.5
 11
-168.47
 21
312.5
  0
LINE
  8
0
 10
-168.47
 20
363.5
 11
-168.47
 21
401.5
  0
LINE
  8
0
 10
-168.47
 20
401.5
 11
-162.79
 21
401.5
  0
LINE
  8
0
 10
-162.79
 20
401.5
 11
-162.79
 21
363.5
  0
LINE
  8
0
 10
-162.79
 20
363.5
 11
-168.47
 21
363.5
  0
LINE
  8
0
 10
-168.47
 20
414.5
 11
-168.47
 21
452.5
  0
LINE
  8
0
 10
-168.47
 20
452.5
 11
-162.79
 21
452.5
  0
LINE
  8
0
 10
-162.79
 20
452.5
 11
-162.79
 21
414.5
  0
LINE
  8
0
 10
-162.79
 20
414.5
 11
-168.47
 21
414.5
  0
LINE
  8
0
 10
-142.72
 20
6.5
 11
-142.72
 21
44.5
  0
LINE
  8
0
 10
-142.72
 20
44.5
 11
-137.04
 21
44.5
  0
LINE
  8
0
 10
-137.04
 20
44.5
 11
-137.04
 21
6.5
  0
LINE
  8
0
 10
-137.04
 20
6.5
 11
-142.72
 21
6.5
  0
LINE
  8
0
 10
-142.72
 20
57.5
 11
-142.72
 21
95.5
  0
LINE
  8
0
 10
-142.72
 20
95.5
 11
-137.04
 21
95.5
  0
LINE
  8
0
 10
-137.04
 20
95.5
 11
-137.04
 21
57.5
  0
LINE
  8
0
 10
-137.04
 20
57.5
 11
-142.72
 21
57.5
  0
LINE
  8
0
 10
-142.72
 20
108.5
 11
-142.72
 21
146.5
  0
LINE
  8
0
 10
-142.72
 20
146.5
 11
-137.04
 21
146.5
  0
LINE
  8
0
 10
-137.04
 20
146.5
 11
-137.04
 21
108.5
  0
LINE
  8
0
 10
-137.04
 20
108.5
 11
-142.72
 21
108.5
  0
LINE
  8
0
 10
-142.72
 20
159.5
 11
-142.72
 21
197.5
  0
LINE
  8
0
 10
-142.72
 20
197.5
 11
-137.04
 21
197.5
  0
LINE
  8
0
 10
-137.04
 20
197.5
 11
-137.04
 21
159.5
  0
LINE
  8
0
 10
-137.04
 20
159.5
 11
-142.72
 21
159.5
  0
LINE
  8
0
 10
-142.72
 20
210.5
 11
-142.72
 21
248.5
  0
LINE
  8
0
 10
-142.72
 20
248.5
 11
-137.04
 21
248.5
  0
LINE
  8
0
 10
-137.04
 20
248.5
 11
-137.04
 21
210.5
  0
LINE
  8
0
 10
-137.04
 20
210.5
 11
-142.72
 21
210.5
  0
LINE
  8
0
 10
-142.72
 20
261.5
 11
-142.72
 21
299.5
  0
LINE
  8
0
 10
-142.72
 20
299.5
 11
-137.04
 21
299.5
  0
LINE
  8
0
 10
-137.04
 20
299.5
 11
-137.04
 21
261.5
  0
LINE
  8
0
 10
-137.04
 20
261.5
 11
-142.72
 21
261.5
  0
LINE
  8
0
 10
-142.72
 20
312.5
 11
-142.72
 21
350.5
  0
LINE
  8
0
 10
-142.72
 20
350.5
 11
-137.04
 21
350.5
  0
LINE
  8
0
 10
-137.04
 20
350.5
 11
-137.04
 21
312.5
  0
LINE
  8
0
 10
-137.04
 20
312.5
 11
-142.72
 21
312.5
  0
LINE
  8
0
 10
-142.72
 20
363.5
 11
-142.72
 21
401.5
  0
LINE
  8
0
 10
-142.72
 20
401.5
 11
-137.04
 21
401.5
  0
LINE
  8
0
 10
-137.04
 20
401.5
 11
-137.04
 21
363.5
  0
LINE
  8
0
 10
-137.04
 20
363.5
 11
-142.72
 21
363.5
  0
LINE
  8
0
 10
-142.72
 20
414.5
 11
-142.72
 21
452.5
  0
LINE
  8
0
 10
-142.72
 20
452.5
 11
-137.04
 21
452.5
  0
LINE
  8
0
 10
-137.04
 20
452.5
 11
-137.04
 21
414.5
  0
LINE
  8
0
 10
-137.04
 20
414.5
 11
-142.72
 21
414.5
  0
LINE
  8
0
 10
-117.47
 20
6.5
 11
-117.47
 21
44.5
  0
LINE
  8
0
 10
-117.47
 20
44.5
 11
-111.79
 21
44.5
  0
LINE
  8
0
 10
-111.79
 20
44.5
 11
-111.79
 21
6.5
  0
LINE
  8
0
 10
-111.79
 20
6.5
 11
-117.47
 21
6.5
  0
LINE
  8
0
 10
-117.47
 20
57.5
 11
-117.47
 21
95.5
  0
LINE
  8
0
 10
-117.47
 20
95.5
 11
-111.79
 21
95.5
  0
LINE
  8
0
 10
-111.79
 20
95.5
 11
-111.79
 21
57.5
  0
LINE
  8
0
 10
-111.79
 20
57.5
 11
-117.47
 21
57.5
  0
LINE
  8
0
 10
-117.47
 20
108.5
 11
-117.47
 21
146.5
  0
LINE
  8
0
 10
-117.47
 20
146.5
 11
-111.79
 21
146.5
  0
LINE
  8
0
 10
-111.79
 20
146.5
 11
-111.79
 21
108.5
  0
LINE
  8
0
 10
-111.79
 20
108.5
 11
-117.47
 21
108.5
  0
LINE
  8
0
 10
-117.47
 20
159.5
 11
-117.47
 21
197.5
  0
LINE
  8
0
 10
-117.47
 20
197.5
 11
-111.79
 21
197.5
  0
LINE
  8
0
 10
-111.79
 20
197.5
 11
-111.79
 21
159.5
  0
LINE
  8
0
 10
-111.79
 20
159.5
 11
-117.47
 21
159.5
  0
LINE
  8
0
 10
-117.47
 20
210.5
 11
-117.47
 21
248.5
  0
LINE
  8
0
 10
-117.47
 20
248.5
 11
-111.79
 21
248.5
  0
LINE
  8
0
 10
-111.79
 20
248.5
 11
-111.79
 21
210.5
  0
LINE
  8
0
 10
-111.79
 20
210.5
 11
-117.47
 21
210.5
  0
LINE
  8
0
 10
-117.47
 20
261.5
 11
-117.47
 21
299.5
  0
LINE
  8
0
 10
-117.47
 20
299.5
 11
-111.79
 21
299.5
  0
LINE
  8
0
 10
-111.79
 20
299.5
 11
-111.79
 21
261.5
  0
LINE
  8
0
 10
-111.79
 20
261.5
 11
-117.47
 21
261.5
  0
LINE
  8
0
 10
-117.47
 20
312.5
 11
-117.47
 21
350.5
  0
LINE
  8
0
 10
-117.47
 20
350.5
 11
-111.79
 21
350.5
  0
LINE
  8
0
 10
-111.79
 20
350.5
 11
-111.79
 21
312.5
  0
LINE
  8
0
 10
-111.79
 20
312.5
 11
-117.47
 21
312.5
  0
LINE
  8
0
 10
-117.47
 20
363.5
 11
-117.47
 21
401.5
  0
LINE
  8
0
 10
-117.47
 20
401.5
 11
-111.79
 21
401.5
  0
LINE
  8
0
 10
-111.79
 20
401.5
 11
-111.79
 21
363.5
  0
LINE
  8
0
 10
-111.79
 20
363.5
 11
-117.47
 21
363.5
  0
LINE
  8
0
 10
-117.47
 20
414.5
 11
-117.47
 21
452.5
  0
LINE
  8
0
 10
-117.47
 20
452.5
 11
-111.79
 21
452.5
  0
LINE
  8
0
 10
-111.79
 20
452.5
 11
-111.79
 21
414.5
  0
LINE
  8
0
 10
-111.79
 20
414.5
 11
-117.47
 21
414.5
  0
LINE
  8
0
 10
-91.72
 20
6.5
 11
-91.72
 21
44.5
  0
LINE
  8
0
 10
-91.72
 20
44.5
 11
-86.04
 21
44.5
  0
LINE
  8
0
 10
-86.04
 20
44.5
 11
-86.04
 21
6.5
  0
LINE
  8
0
 10
-86.04
 20
6.5
 11
-91.72
 21
6.5
  0
LINE
  8
0
 10
-91.72
 20
57.5
 11
-91.72
 21
95.5
  0
LINE
  8
0
 10
-91.72
 20
95.5
 11
-86.04
 21
95.5
  0
LINE
  8
0
 10
-86.04
 20
95.5
 11
-86.04
 21
57.5
  0
LINE
  8
0
 10
-86.04
 20
57.5
 11
-91.72
 21
57.5
  0
LINE
  8
0
 10
-91.72
 20
108.5
 11
-91.72
 21
146.5
  0
LINE
  8
0
 10
-91.72
 20
146.5
 11
-86.04
 21
146.5
  0
LINE
  8
0
 10
-86.04
 20
146.5
 11
-86.04
 21
108.5
  0
LINE
  8
0
 10
-86.04
 20
108.5
 11
-91.72
 21
108.5
  0
LINE
  8
0
 10
-91.72
 20
159.5
 11
-91.72
 21
197.5
  0
LINE
  8
0
 10
-91.72
 20
197.5
 11
-86.04
 21
197.5
  0
LINE
  8
0
 10
-86.04
 20
197.5
 11
-86.04
 21
159.5
  0
LINE
  8
0
 10
-86.04
 20
159.5
 11
-91.72
 21
159.5
  0
LINE
  8
0
 10
-91.72
 20
210.5
 11
-91.72
 21
248.5
  0
LINE
  8
0
 10
-91.72
 20
248.5
 11
-86.04
 21
248.5
  0
LINE
  8
0
 10
-86.04
 20
248.5
 11
-86.04
 21
210.5
  0
LINE
  8
0
 10
-86.04
 20
210.5
 11
-91.72
 21
210.5
  0
LINE
  8
0
 10
-91.72
 20
261.5
 11
-91.72
 21
299.5
  0
LINE
  8
0
 10
-91.72
 20
299.5
 11
-86.04
 21
299.5
  0
LINE
  8
0
 10
-86.04
 20
299.5
 11
-86.04
 21
261.5
  0
LINE
  8
0
 10
-86.04
 20
261.5
 11
-91.72
 21
261.5
  0
LINE
  8
0
 10
-91.72
 20
312.5
 11
-91.72
 21
350.5
  0
LINE
  8
0
 10
-91.72
 20
350.5
 11
-86.04
 21
350.5
  0
LINE
  8
0
 10
-86.04
 20
350.5
 11
-86.04
 21
312.5
  0
LINE
  8
0
 10
-86.04
 20
312.5
 11
-91.72
 21
312.5
  0
LINE
  8
0
 10
-91.72
 20
363.5
 11
-91.72
 21
401.5
  0
LINE
  8
0
 10
-91.72
 20
401.5
 11
-86.04
 21
401.5
  0
LINE
  8
0
 10
-86.04
 20
401.5
 11
-86.04
 21
363.5
  0
LINE
  8
0
 10
-86.04
 20
363.5
 11
-91.72
 21
363.5
  0
LINE
  8
0
 10
-91.72
 20
414.5
 11
-91.72
 21
452.5
  0
LINE
  8
0
 10
-91.72
 20
452.5
 11
-86.04
 21
452.5
  0
LINE
  8
0
 10
-86.04
 20
452.5
 11
-86.04
 21
414.5
  0
LINE
  8
0
 10
-86.04
 20
414.5
 11
-91.72
 21
414.5
  0
LINE
  8
0
 10
-66.47
 20
6.5
 11
-66.47
 21
44.5
  0
LINE
  8
0
 10
-66.47
 20
44.5
 11
-60.79
 21
44.5
  0
LINE
  8
0
 10
-60.79
 20
44.5
 11
-60.79
 21
6.5
  0
LINE
  8
0
 10
-60.79
 20
6.5
 11
-66.47
 21
6.5
  0
LINE
  8
0
 10
-66.47
 20
57.5
 11
-66.47
 21
95.5
  0
LINE
  8
0
 10
-66.47
 20
95.5
 11
-60.79
 21
95.5
  0
LINE
  8
0
 10
-60.79
 20
95.5
 11
-60.79
 21
57.5
  0
LINE
  8
0
 10
-60.79
 20
57.5
 11
-66.47
 21
57.5
  0
LINE
  8
0
 10
-66.47
 20
108.5
 11
-66.47
 21
146.5
  0
LINE
  8
0
 10
-66.47
 20
146.5
 11
-60.79
 21
146.5
  0
LINE
  8
0
 10
-60.79
 20
146.5
 11
-60.79
 21
108.5
  0
LINE
  8
0
 10
-60.79
 20
108.5
 11
-66.47
 21
108.5
  0
LINE
  8
0
 10
-66.47
 20
159.5
 11
-66.47
 21
197.5
  0
LINE
  8
0
 10
-66.47
 20
197.5
 11
-60.79
 21
197.5
  0
LINE
  8
0
 10
-60.79
 20
197.5
 11
-60.79
 21
159.5
  0
LINE
  8
0
 10
-60.79
 20
159.5
 11
-66.47
 21
159.5
  0
LINE
  8
0
 10
-66.47
 20
210.5
 11
-66.47
 21
248.5
  0
LINE
  8
0
 10
-66.47
 20
248.5
 11
-60.79
 21
248.5
  0
LINE
  8
0
 10
-60.79
 20
248.5
 11
-60.79
 21
210.5
  0
LINE
  8
0
 10
-60.79
 20
210.5
 11
-66.47
 21
210.5
  0
LINE
  8
0
 10
-66.47
 20
261.5
 11
-66.47
 21
299.5
  0
LINE
  8
0
 10
-66.47
 20
299.5
 11
-60.79
 21
299.5
  0
LINE
  8
0
 10
-60.79
 20
299.5
 11
-60.79
 21
261.5
  0
LINE
  8
0
 10
-60.79
 20
261.5
 11
-66.47
 21
261.5
  0
LINE
  8
0
 10
-66.47
 20
312.5
 11
-66.47
 21
350.5
  0
LINE
  8
0
 10
-66.47
 20
350.5
 11
-60.79
 21
350.5
  0
LINE
  8
0
 10
-60.79
 20
350.5
 11
-60.79
 21
312.5
  0
LINE
  8
0
 10
-60.79
 20
312.5
 11
-66.47
 21
312.5
  0
LINE
  8
0
 10
-66.47
 20
363.5
 11
-66.47
 21
401.5
  0
LINE
  8
0
 10
-66.47
 20
401.5
 11
-60.79
 21
401.5
  0
LINE
  8
0
 10
-60.79
 20
401.5
 11
-60.79
 21
363.5
  0
LINE
  8
0
 10
-60.79
 20
363.5
 11
-66.47
 21
363.5
  0
LINE
  8
0
 10
-66.47
 20
414.5
 11
-66.47
 21
452.5
  0
LINE
  8
0
 10
-66.47
 20
452.5
 11
-60.79
 21
452.5
  0
LINE
  8
0
 10
-60.79
 20
452.5
 11
-60.79
 21
414.5
  0
LINE
  8
0
 10
-60.79
 20
414.5
 11
-66.47
 21
414.5
  0
LINE
  8
0
 10
-40.72
 20
6.5
 11
-40.72
 21
44.5
  0
LINE
  8
0
 10
-40.72
 20
44.5
 11
-35.04
 21
44.5
  0
LINE
  8
0
 10
-35.04
 20
44.5
 11
-35.04
 21
6.5
  0
LINE
  8
0
 10
-35.04
 20
6.5
 11
-40.72
 21
6.5
  0
LINE
  8
0
 10
-40.72
 20
57.5
 11
-40.72
 21
95.5
  0
LINE
  8
0
 10
-40.72
 20
95.5
 11
-35.04
 21
95.5
  0
LINE
  8
0
 10
-35.04
 20
95.5
 11
-35.04
 21
57.5
  0
LINE
  8
0
 10
-35.04
 20
57.5
 11
-40.72
 21
57.5
  0
LINE
  8
0
 10
-40.72
 20
108.5
 11
-40.72
 21
146.5
  0
LINE
  8
0
 10
-40.72
 20
146.5
 11
-35.04
 21
146.5
  0
LINE
  8
0
 10
-35.04
 20
146.5
 11
-35.04
 21
108.5
  0
LINE
  8
0
 10
-35.04
 20
108.5
 11
-40.72
 21
108.5
  0
LINE
  8
0
 10
-40.72
 20
159.5
 11
-40.72
 21
197.5
  0
LINE
  8
0
 10
-40.72
 20
197.5
 11
-35.04
 21
197.5
  0
LINE
  8
0
 10
-35.04
 20
197.5
 11
-35.04
 21
159.5
  0
LINE
  8
0
 10
-35.04
 20
159.5
 11
-40.72
 21
159.5
  0
LINE
  8
0
 10
-40.72
 20
210.5
 11
-40.72
 21
248.5
  0
LINE
  8
0
 10
-40.72
 20
248.5
 11
-35.04
 21
248.5
  0
LINE
  8
0
 10
-35.04
 20
248.5
 11
-35.04
 21
210.5
  0
LINE
  8
0
 10
-35.04
 20
210.5
 11
-40.72
 21
210.5
  0
LINE
  8
0
 10
-40.72
 20
261.5
 11
-40.72
 21
299.5
  0
LINE
  8
0
 10
-40.72
 20
299.5
 11
-35.04
 21
299.5
  0
LINE
  8
0
 10
-35.04
 20
299.5
 11
-35.04
 21
261.5
  0
LINE
  8
0
 10
-35.04
 20
261.5
 11
-40.72
 21
261.5
  0
LINE
  8
0
 10
-40.72
 20
312.5
 11
-40.72
 21
350.5
  0
LINE
  8
0
 10
-40.72
 20
350.5
 11
-35.04
 21
350.5
  0
LINE
  8
0
 10
-35.04
 20
350.5
 11
-35.04
 21
312.5
  0
LINE
  8
0
 10
-35.04
 20
312.5
 11
-40.72
 21
312.5
  0
LINE
  8
0
 10
-40.72
 20
363.5
 11
-40.72
 21
401.5
  0
LINE
  8
0
 10
-40.72
 20
401.5
 11
-35.04
 21
401.5
  0
LINE
  8
0
 10
-35.04
 20
401.5
 11
-35.04
 21
363.5
  0
LINE
  8
0
 10
-35.04
 20
363.5
 11
-40.72
 21
363.5
  0
LINE
  8
0
 10
-40.72
 20
414.5
 11
-40.72
 21
452.5
  0
LINE
  8
0
 10
-40.72
 20
452.5
 11
-35.04
 21
452.5
  0
LINE
  8
0
 10
-35.04
 20
452.5
 11
-35.04
 21
414.5
  0
LINE
  8
0
 10
-35.04
 20
414.5
 11
-40.72
 21
414.5
  0
LINE
  8
0
 10
-15.47
 20
6.5
 11
-15.47
 21
44.5
  0
LINE
  8
0
 10
-15.47
 20
44.5
 11
-9.79
 21
44.5
  0
LINE
  8
0
 10
-9.79
 20
44.5
 11
-9.79
 21
6.5
  0
LINE
  8
0
 10
-9.79
 20
6.5
 11
-15.47
 21
6.5
  0
LINE
  8
0
 10
-15.47
 20
57.5
 11
-15.47
 21
95.5
  0
LINE
  8
0
 10
-15.47
 20
95.5
 11
-9.79
 21
95.5
  0
LINE
  8
0
 10
-9.79
 20
95.5
 11
-9.79
 21
57.5
  0
LINE
  8
0
 10
-9.79
 20
57.5
 11
-15.47
 21
57.5
  0
LINE
  8
0
 10
-15.47
 20
108.5
 11
-15.47
 21
146.5
  0
LINE
  8
0
 10
-15.47
 20
146.5
 11
-9.79
 21
146.5
  0
LINE
  8
0
 10
-9.79
 20
146.5
 11
-9.79
 21
108.5
  0
LINE
  8
0
 10
-9.79
 20
108.5
 11
-15.47
 21
108.5
  0
LINE
  8
0
 10
-15.47
 20
159.5
 11
-15.47
 21
197.5
  0
LINE
  8
0
 10
-15.47
 20
197.5
 11
-9.79
 21
197.5
  0
LINE
  8
0
 10
-9.79
 20
197.5
 11
-9.79
 21
159.5
  0
LINE
  8
0
 10
-9.79
 20
159.5
 11
-15.47
 21
159.5
  0
LINE
  8
0
 10
-15.47
 20
210.5
 11
-15.47
 21
248.5
  0
LINE
  8
0
 10
-15.47
 20
248.5
 11
-9.79
 21
248.5
  0
LINE
  8
0
 10
-9.79
 20
248.5
 11
-9.79
 21
210.5
  0
LINE
  8
0
 10
-9.79
 20
210.5
 11
-15.47
 21
210.5
  0
LINE
  8
0
 10
-15.47
 20
261.5
 11
-15.47
 21
299.5
  0
LINE
  8
0
 10
-15.47
 20
299.5
 11
-9.79
 21
299.5
  0
LINE
  8
0
 10
-9.79
 20
299.5
 11
-9.79
 21
261.5
  0
LINE
  8
0
 10
-9.79
 20
261.5
 11
-15.47
 21
261.5
  0
LINE
  8
0
 10
-15.47
 20
312.5
 11
-15.47
 21
350.5
  0
LINE
  8
0
 10
-15.47
 20
350.5
 11
-9.79
 21
350.5
  0
LINE
  8
0
 10
-9.79
 20
350.5
 11
-9.79
 21
312.5
  0
LINE
  8
0
 10
-9.79
 20
312.5
 11
-15.47
 21
312.5
  0
LINE
  8
0
 10
-15.47
 20
363.5
 11
-15.47
 21
401.5
  0
LINE
  8
0
 10
-15.47
 20
401.5
 11
-9.79
 21
401.5
  0
LINE
  8
0
 10
-9.79
 20
401.5
 11
-9.79
 21
363.5
  0
LINE
  8
0
 10
-9.79
 20
363.5
 11
-15.47
 21
363.5
  0
LINE
  8
0
 10
-15.47
 20
414.5
 11
-15.47
 21
452.5
  0
LINE
  8
0
 10
-15.47
 20
452.5
 11
-9.79
 21
452.5
  0
LINE
  8
0
 10
-9.79
 20
452.5
 11
-9.79
 21
414.5
  0
LINE
  8
0
 10
-9.79
 20
414.5
 11
-15.47
 21
414.5
  0
ENDSEC
  0
SECTION
  2
OBJECTS
  0
DICTIONARY
  0
ENDSEC
  0
EOF
